<svg width="150" height="150" xmlns="http://www.w3.org/2000/svg">

 <g>
  <title>Layer 1</title>
  <g stroke="null" id="svg_31">
   <path stroke="null" id="svg_1" fill="#1d1d1b" d="m36.35191,15.11818a76.25512,74.37995 0 0 1 32.21443,-9.8596c12.16989,-0.58655 23.33756,2.20654 38.82912,9.44064s24.05344,14.13303 30.61086,26.00365s10.10817,20.61299 6.52879,36.05877s-4.66751,30.97535 -11.02449,41.70081s-16.98058,18.15508 -32.72986,22.00954s-38.14188,6.36824 -57.47053,-4.02205s-32.9303,-25.83607 -37.94143,-47.2032s-0.88769,-32.48362 2.8635,-42.51081a67.69325,66.02861 0 0 1 28.11961,-31.61776z"/>
   <path stroke="null" id="svg_2" fill="#4eae4d" d="m41.70666,16.71024a65.43108,63.82207 0 0 1 22.02035,-7.26203c11.45402,-1.31275 29.98089,3.68688 31.92807,4.55273s3.57938,1.39654 2.8635,1.92723s-7.24467,6.08893 -9.5641,6.45203s-10.36589,-1.56413 -16.46515,-1.31275s-10.19408,1.39654 -13.14349,1.39654s-7.15876,-3.15619 -10.02227,-3.40757s-8.96277,-1.64792 -7.61692,-2.34619z"/>
   <path stroke="null" id="svg_3" fill="#85bfe9" d="m36.06556,21.06746a16.6656,16.25578 0 0 1 11.91218,0.94965c4.63888,2.45792 4.12345,3.49136 10.45179,3.40757s9.42093,-1.11724 11.28221,-0.69827s9.76455,3.77067 16.7515,2.45792a29.83772,29.10398 0 0 0 12.2558,-4.8879c2.06172,-1.31275 3.29303,-3.49136 4.55297,-3.32378s12.62805,6.73134 12.42761,7.42962a12.94304,12.62476 0 0 1 -4.89659,4.18963a21.27584,20.75265 0 0 0 -7.98918,9.66409c-1.43175,4.10584 -2.23353,16.42336 -0.34362,17.65232s6.7006,-0.53069 8.59051,0.86586s2.31944,5.75376 5.46929,6.11686s4.46707,-1.92723 7.33057,0s2.8635,3.37964 7.33057,3.49136s8.59051,-0.89379 8.84823,0a7.07286,6.89893 0 0 1 -0.34362,3.99412c-0.45816,0.27931 -15.57746,2.01102 -19.15684,2.20654s-2.8635,0.94965 -4.83932,0s-5.09704,-4.55273 -9.70728,-5.25101s-18.69868,-1.56413 -21.47628,-1.56413s-3.57938,0 -3.86573,1.31275s0.28635,14.4682 -1.1454,18.76955s-0.45816,11.33994 4.72478,13.35096s10.56633,3.04447 11.28221,4.8879s3.23576,13.96544 5.46929,18.07128s5.35475,8.79823 4.29526,9.66409a58.15778,56.72763 0 0 1 -17.18103,4.30136a67.69325,66.02861 0 0 1 -16.55106,0s-3.32167,-16.75853 -4.20935,-18.2668a13.37257,13.04372 0 0 1 -1.17404,-6.53583c0.37226,-1.14517 6.7006,-13.60234 5.89882,-16.75853s-2.06172,-6.36824 -5.01113,-7.15031s-7.87464,0 -15.83518,0a79.71996,77.75958 0 0 1 -15.29111,-1.22896c-1.60356,-0.33517 -2.51988,0 -3.23576,-0.78206s-6.52879,-11.17235 -5.72701,-12.122s8.96277,-3.23998 9.30639,-5.08342s-0.17181,-6.28445 1.88991,-6.45203s11.08176,1.06137 13.94527,-0.41896s3.23576,-4.8879 3.32167,-7.87651s-1.0595,-9.4965 -2.40534,-10.72546s-14.31752,-5.05549 -19.24275,-7.5972s-9.07731,-4.5248 -8.53324,-6.20066a35.65063,34.77395 0 0 1 10.82405,-9.8596z"/>
   <path stroke="null" id="svg_4" fill="#1d1d1b" d="m41.53485,27.01674c1.54629,-0.19552 1.68947,0.97758 1.1454,2.01102s0,4.80411 1.7181,4.72032a159.09631,155.184 0 0 1 18.32643,-2.96067a75.53925,73.68168 0 0 1 22.90804,4.6086c2.14763,1.14517 3.14985,5.58618 3.32167,6.89893a84.30157,82.22853 0 0 1 -7.87464,15.44578c-0.80178,0.41896 -9.13458,-2.79309 -15.1193,-5.58618s-8.59051,-4.10584 -8.84823,-5.25101a17.83963,17.40094 0 0 0 -1.43175,-4.72032c-0.54407,-0.25138 -8.59051,-0.78206 -12.45624,-3.04447s-7.33057,-5.94928 -6.6147,-7.51341a11.96945,11.67511 0 0 1 4.92523,-4.6086z"/>
   <path stroke="null" id="svg_5" fill="#4eae4d" d="m52.61661,35.0329a59.56089,58.09624 0 0 1 20.76041,0.86586c9.13458,1.75965 10.56633,3.23998 10.30862,5.41859s-3.66529,11.17235 -4.92523,10.72546a119.63722,116.69524 0 0 1 -15.20521,-6.08893c-0.62997,-0.89379 -0.83042,-5.25101 -3.49348,-6.03307s-8.24689,-2.45792 -10.10817,-3.15619s-1.43175,-1.39654 -1.00223,-1.39654s3.66529,-0.33517 3.66529,-0.33517z"/>
   <path stroke="null" id="svg_6" fill="#4eae4d" d="m119.10719,27.60329c0.60134,-0.19552 8.4187,2.9886 13.77346,12.932s7.07286,22.17712 6.44289,23.29436s-2.57715,1.22896 -4.38116,0.69827s-8.9055,-4.35722 -10.45179,-4.35722s-4.03754,1.31275 -5.09704,0s-4.29526,-5.22308 -7.53102,-5.22308s-3.923,0.53069 -4.46707,-0.16759s-2.31944,-15.44578 1.0595,-18.15508s6.35698,-4.44101 7.70283,-5.58618s2.14763,-3.15619 2.94941,-3.4355z"/>
   <path stroke="null" id="svg_7" fill="#4eae4d" d="m85.11739,71.70615c1.03086,0 16.37925,-1.11724 19.41456,1.75965s5.5552,6.00514 8.13235,5.92135s26.31561,-2.09482 26.31561,-1.20103s-2.69169,20.94816 -6.81514,31.14294a45.55836,44.43804 0 0 1 -15.83518,19.71921c-3.29303,1.84344 -6.7006,2.54171 -6.95832,2.01102a62.48167,60.94519 0 0 1 -6.55743,-16.56302c-1.94718,-8.99375 -2.49125,-13.18338 -5.52656,-13.96544s-10.56633,-2.51378 -11.99808,-4.27343a11.45402,11.17235 0 0 1 -1.60356,-5.22308s0.80178,-10.83718 0.80178,-13.18338s0.08591,-6.14479 0.62997,-6.14479z"/>
   <path stroke="null" id="svg_8" fill="#4eae4d" d="m32.77253,91.84432a36.48105,35.58395 0 0 0 13.85936,2.54171c9.4782,0.16759 18.78459,-0.86586 19.78682,0.25138s0.80178,4.9717 -1.25994,8.65857a61.22173,59.71623 0 0 0 -3.40757,7.2341a74.90928,73.0672 0 0 0 -9.04867,-6.98272a1.68947,1.64792 0 0 0 -0.97359,1.92723c0.37226,0.78206 8.59051,6.20066 8.96277,6.89893a27.91917,27.23261 0 0 1 -0.28635,4.8879a73.76388,71.94996 0 0 0 -8.59051,-6.64755c-1.0595,-0.16759 -1.77537,2.37413 -1.43175,2.79309s10.10817,6.98272 11.45402,8.12789a17.35284,16.92612 0 0 1 2.40534,7.06651c-0.25772,0 -11.16767,-8.63064 -11.79764,-8.74237s-0.80178,2.79309 -0.80178,2.79309s12.88577,8.90995 13.3153,9.60822a18.58414,18.12714 0 0 1 1.25994,5.25101a93.26434,90.97089 0 0 1 -10.27998,-2.54171c-3.57938,-1.31275 -6.72924,-2.01102 -6.72924,-2.2624s-3.3503,-10.55787 -8.04645,-15.02682a36.96784,36.05877 0 0 1 -6.75787,-7.40168a89.02635,86.83712 0 0 1 -1.00223,-10.39029c-0.11454,-2.37413 -1.17404,-8.04409 -0.62997,-8.04409z"/>
   <path stroke="null" id="svg_9" fill="#85bfe9" d="m12.98571,92.37501c0.54407,-1.03344 7.33057,0.69827 10.56633,1.92723s4.29526,2.79309 4.38116,5.22308s-0.37226,13.01579 1.86128,14.94302a30.66813,29.91398 0 0 1 8.79096,9.16133a20.78904,20.27782 0 0 1 2.8635,6.11686a57.69962,56.28073 0 0 1 -16.92331,-15.36199c-9.13458,-11.53546 -11.79764,-21.47885 -11.53992,-22.00954z"/>
   <path stroke="null" id="svg_10" fill="#4eae4d" d="m10.37992,86.17435a50.56949,49.32594 0 0 1 -0.34362,-26.9533c3.923,-15.89267 11.45402,-24.35573 12.08399,-24.27194s15.46292,8.37927 21.47628,11.17235s6.35698,2.79309 6.78651,4.02205a29.0073,28.29399 0 0 1 -0.54407,9.32892c-0.51543,0.25138 -11.25357,-0.25138 -14.31752,0s-3.98027,4.44101 -3.75119,6.11686s0.37226,2.42999 -0.34362,2.96067s-10.30862,3.04447 -10.82405,5.58618s6.78651,14.99889 5.72701,15.36199s-13.08622,-0.44689 -15.94972,-3.32378z"/>
   <g stroke="null" id="svg_11" fill="#1d1d1b">
    <path stroke="null" id="svg_12" d="m15.39105,55.45038a54.6643,53.32006 0 0 1 3.32167,-10.19477c1.43175,-2.09482 2.06172,-2.54171 2.69169,-2.37413s2.40534,0.97758 2.23353,1.48034s-3.23576,6.28445 -4.03754,8.82616s0,2.54171 -1.1454,2.79309s-2.69169,0.08379 -3.06395,-0.53069z"/>
    <path stroke="null" id="svg_13" d="m97.40182,28.66466c0.45816,-0.39103 7.24467,-2.01102 7.70283,-1.39654s0.97359,1.22896 0.51543,1.56413a33.64618,32.81879 0 0 1 -7.50238,2.6255c-0.5727,-0.27931 -1.28858,-2.37413 -0.71588,-2.79309z"/>
    <path stroke="null" id="svg_14" d="m92.99202,49.16593c0.42953,0.44689 4.20935,6.36824 3.75119,6.89893s0,1.31275 -0.97359,0.86586a17.86827,17.42887 0 0 1 -4.4098,-6.20066c0.31499,-0.69827 1.6322,-1.56413 1.6322,-1.56413z"/>
    <path stroke="null" id="svg_15" d="m88.81131,53.18798a34.87748,34.01982 0 0 1 4.92523,5.83756c0,0.53069 0,1.31275 -0.88769,1.06137a23.10848,22.54022 0 0 1 -5.32612,-5.13928c0,-0.44689 1.28858,-1.84344 1.28858,-1.75965z"/>
    <path stroke="null" id="svg_16" d="m124.11832,40.0046a20.55996,20.05438 0 0 1 7.15876,3.40757c0,0.53069 0.28635,1.92723 -0.42953,1.64792s-7.2733,-2.79309 -7.53102,-3.12826s0.71588,-1.84344 0.80178,-1.92723z"/>
    <path stroke="null" id="svg_17" d="m123.48835,46.56836c0.22908,-0.30724 11.45402,6.08893 11.45402,7.06651s1.00223,1.64792 -0.17181,1.48034a86.39193,84.26748 0 0 1 -12.16989,-6.03307c-0.34362,-0.53069 0.5727,-2.09482 0.88769,-2.51378z"/>
    <path stroke="null" id="svg_18" d="m122.42885,52.15453a72.81892,71.02824 0 0 1 13.85936,7.31789c0.17181,0.78206 0.80178,1.64792 -0.34362,1.56413a116.20101,113.34353 0 0 1 -14.14571,-6.61962c-0.25772,-0.3631 0.25772,-2.09482 0.62997,-2.2624z"/>
    <path stroke="null" id="svg_19" d="m125.12054,84.35884a37.71235,36.78498 0 0 1 8.30416,7.76479c-0.25772,0.69827 0,1.03344 -0.80178,0.78206a64.0566,62.48139 0 0 1 -8.93413,-7.5972c0.17181,-0.44689 0.97359,-0.78206 1.43175,-0.94965z"/>
    <path stroke="null" id="svg_20" d="m120.62484,89.66571a81.35216,79.35165 0 0 1 9.59274,8.82616c0,0.69827 -0.37226,1.31275 -0.71588,1.22896a119.46541,116.52765 0 0 1 -9.85046,-8.37927a13.60165,13.26717 0 0 1 0.97359,-1.67585z"/>
    <path stroke="null" id="svg_21" d="m117.76134,95.33568a66.86283,65.21862 0 0 1 9.59274,9.27305c-0.20045,0.69827 0.17181,1.11724 -0.71588,1.03344a112.27801,109.517 0 0 1 -10.10817,-8.79823a9.13458,8.90995 0 0 1 1.23131,-1.50827z"/>
    <path stroke="null" id="svg_22" d="m115.5278,99.97221a83.44252,81.3906 0 0 1 9.76455,9.16133c0,0.69827 -0.28635,1.14517 -0.62997,0.86586a125.76512,122.67245 0 0 1 -10.99586,-8.63064a2.40534,2.34619 0 0 1 1.86128,-1.39654z"/>
    <path stroke="null" id="svg_23" d="m113.75243,108.35148a45.81607,44.68942 0 0 1 8.76232,7.5972c0,0.61448 -0.45816,1.03344 -0.71588,0.94965a96.29966,93.93157 0 0 1 -9.13458,-6.98272c-0.08591,-0.53069 0.88769,-1.48034 1.08813,-1.56413z"/>
    <path stroke="null" id="svg_24" d="m111.71934,113.40697c0.4868,0 9.30639,7.51341 8.59051,8.21168s-0.34362,1.03344 -1.0595,0.78206a63.77024,62.20208 0 0 1 -8.96277,-7.51341c0.31499,-0.41896 0.94496,-1.48034 1.43175,-1.48034z"/>
    <path stroke="null" id="svg_25" d="m83.59973,106.42424c0.25772,-0.39103 3.75119,0.86586 3.66529,1.67585s0,0.94965 -0.45816,0.94965a14.31752,13.96544 0 0 1 -4.38116,-1.22896c0,-0.33517 0.97359,-1.11724 1.17404,-1.39654z"/>
    <path stroke="null" id="svg_26" d="m77.75818,117.17764a4.18072,4.07791 0 0 1 3.32167,0c1.34585,0.61448 3.32167,2.79309 5.09704,3.0724s3.14985,-0.78206 3.57938,-0.53069a1.0595,1.03344 0 0 1 0.45816,1.31275c-0.28635,0.44689 -0.45816,0.86586 -1.17404,1.03344a5.72701,5.58618 0 0 1 -4.29526,-0.41896c-1.66083,-1.0893 -2.69169,-2.45792 -4.52434,-2.45792s-1.6322,0.33517 -1.97582,0s-1.20267,-1.42448 -0.4868,-2.01102z"/>
    <path stroke="null" id="svg_27" d="m57.31276,97.26291c0.71588,0.44689 5.89882,4.8879 5.72701,5.58618s-0.54407,1.39654 -1.08813,1.22896a28.9214,28.21019 0 0 1 -6.15653,-5.08342c-0.02864,-0.67034 1.51766,-1.73171 1.51766,-1.73171z"/>
    <path stroke="null" id="svg_28" d="m52.18709,70.11409c0.34362,0 8.04645,11.70304 7.41648,12.31752s-0.97359,1.22896 -1.34585,0.86586a128.14183,124.99071 0 0 1 -8.13235,-12.122a3.75119,3.65895 0 0 1 2.06172,-1.06137z"/>
    <path stroke="null" id="svg_29" d="m55.1365,68.91307c0,-0.33517 1.68947,-1.06137 2.23353,-0.53069a34.36205,33.51706 0 0 1 3.923,7.5972c-0.25772,0.50276 0,1.31275 -0.71588,0.78206a50.39768,49.15836 0 0 1 -5.44066,-7.84858z"/>
    <path stroke="null" id="svg_30" d="m70.88577,68.10307c0.22908,-0.30724 2.8635,-2.79309 3.66529,-2.79309s2.8635,0 2.60579,0.61448s-4.03754,5.3348 -4.75342,4.8879a4.75342,4.63653 0 0 1 -1.51766,-2.7093z"/>
   </g>
  </g>
 </g>
</svg>