<svg width="150" height="150" xmlns="http://www.w3.org/2000/svg" xml:space="preserve" version="1.1">

 <g>
  <title>Layer 1</title>
  <g stroke="null" id="svg_7">
   <path stroke="null" id="svg_1" fill="#328777" d="m37.13163,103.91167c0,0 -14.32034,8.60988 -25.33261,30.51655c-1.60738,3.1981 -0.08129,7.03572 3.33628,8.40759l1.6923,0.67938c3.65949,1.46874 7.83718,-0.5282 8.78613,-4.21865c2.05825,-8.00596 7.41061,-21.41566 16.08947,-26.93153l-4.57157,-8.45335z"/>
   <path stroke="null" id="svg_2" fill="#266659" d="m41.70376,112.36528l-4.57157,-8.45335c0,0 -4.79784,2.88503 -10.97484,9.563c2.64042,1.73578 5.92977,3.90611 8.59142,5.68872c2.01551,-2.74161 4.33217,-5.13189 6.95499,-6.79837z"/>
   <path stroke="null" id="svg_3" fill="#7CD8A4" d="m127.71625,12.94955c14.59625,12.23445 -17.94771,38.68743 -12.11212,41.45541c5.83587,2.76798 21.3616,-13.74193 21.3616,-13.74193l0.73743,13.35585c-6.35492,8.55894 -15.35216,15.24113 -21.31485,19.10568c-2.3601,1.52964 -0.78642,5.07299 2.00091,4.4888c9.40934,-1.97179 20.68885,-10.59321 20.68885,-10.59321l-5.34369,13.88745c-11.12553,11.38646 -27.69329,14.38967 -37.18858,15.14394c-2.11178,0.16768 -2.43989,2.98345 -0.42079,3.59622c10.51436,3.19145 21.655,-0.41679 21.655,-0.41679l-9.29511,14.13095c-12.33077,6.12337 -29.11047,4.23141 -38.21213,2.50365c-1.8836,-0.35778 -2.99059,1.94349 -1.48325,3.07877c9.49781,7.15292 18.53088,6.59729 18.53088,6.59729c-36.39376,17.18863 -48.21751,-17.30904 -48.21751,-17.30904l-0.90625,-0.75961c0,0 -37.19502,-6.29264 -23.28384,-42.6222c0,0 0.50394,7.45756 7.54729,14.99095c1.68539,1.80251 4.75324,0.12709 4.00014,-2.17845c-2.84556,-8.71353 -6.01393,-22.90669 -1.59916,-34.39327l13.50103,-10.60549c0,0 -1.80381,8.54532 0.96504,17.10078c0.86089,2.66092 4.99065,2.06871 4.98645,-0.71583c-0.01316,-9.32549 1.80605,-23.18196 11.05413,-33.8267l13.75608,-6.83652c0,0 -13.30477,20.84118 -6.49659,28.62128c0,0 7.08563,-17.46337 20.19359,-28.99001l13.98341,-1.01754c0,0 -15.17522,16.80388 -11.54743,21.96819c3.62779,5.16404 26.95754,-29.01217 41.55351,-16.77798l0.90597,0.75935z"/>
   <path stroke="null" id="svg_4" fill="#3EAC92" d="m131.05679,80.46963c-13.62923,5.86934 -28.04678,6.66833 -42.85152,2.37556c-7.2497,-2.1021 -12.82274,-4.97937 -15.84978,-6.74566l12.94482,-14.07973c2.75188,1.44252 7.86316,3.68483 14.59299,4.70564c2.08787,0.31681 4.42491,0.52392 6.96756,0.52392c7.24579,0 16.15316,-1.68922 25.65917,-7.33085c1.73393,-1.81793 3.39578,-3.75359 4.90707,-5.7979l-0.11984,-2.17729c-0.47015,0.00856 -0.94141,0.15814 -1.33725,0.46157c-11.14105,8.54379 -22.98076,11.96719 -35.18949,10.1712c-5.50432,-0.80916 -9.85772,-2.55324 -12.473,-3.82745l40.6818,-44.24762c-0.43774,-0.53409 -0.94448,-1.04784 -1.52749,-1.53858l-0.90426,-0.76126c-0.25756,-0.21674 -0.51847,-0.41769 -0.78134,-0.60607l-40.97512,44.56711c-1.59565,-2.07079 -4.41346,-6.28141 -6.20717,-12.12774c-3.50417,-11.4224 -1.49983,-23.17018 5.95743,-34.91662c0.24974,-0.39307 0.34751,-0.83324 0.31287,-1.25949l-2.19988,0.16081c-2.00881,1.77431 -3.87515,3.68911 -5.59679,5.65902c-6.07447,13.03858 -4.98696,24.12998 -2.71138,31.54887c2.19821,7.16496 5.7792,12.11195 7.46676,14.17365l-12.9085,14.04012c-2.05323,-2.34586 -6.26806,-7.63215 -9.7471,-15.04087c-6.34517,-13.51246 -7.36898,-27.31042 -3.04213,-41.01099c0.26315,-0.83324 -0.03715,-1.701 -0.69,-2.2292l-0.1623,0.08081c-2.00238,2.31509 -3.65474,4.78163 -5.0163,7.32042c-3.1156,15.6274 0.79531,28.92259 4.95372,37.72352c3.95393,8.36826 8.69646,14.09417 10.75164,16.36752l-12.54814,13.64812c-4.78779,-6.16956 -21.21834,-28.73849 -22.13154,-48.9653c-0.04023,-0.89104 -0.64865,-1.63223 -1.4786,-1.90784l-2.92173,2.30519c0.52266,10.47383 4.77494,22.53682 12.64396,35.86037c4.61487,7.81357 9.09286,13.67568 10.90361,15.95331l-3.82319,4.15844c-0.26929,0.0182 -0.5249,0.08188 -0.759,0.18409c-3.7257,0.09098 -19.69253,-0.76313 -32.10379,-20.6734c-0.37992,-0.60901 -1.02857,-0.9673 -1.71437,-1.02215c-0.25365,2.17756 -0.2908,4.21062 -0.14359,6.10722c7.62794,10.86343 16.25121,15.68413 22.35753,17.81673c4.48497,1.56614 8.2495,1.94476 10.54604,1.99801c0.35003,2.17488 1.22635,5.70371 3.42344,9.76208c2.95301,5.45486 8.92804,12.90291 20.83787,18.72168c2.11664,-0.05271 4.36457,-0.31601 6.74966,-0.82869c-0.17515,-0.58734 -0.61317,-1.09788 -1.24423,-1.3601c-10.38178,-4.31658 -18.09437,-10.63197 -22.30446,-18.26359c-2.06552,-3.74423 -2.83066,-6.97738 -3.11392,-8.79451l4.75678,-5.1739c3.06364,1.64721 9.19622,4.76558 16.96076,7.78895c12.92331,5.03209 24.49764,7.57061 34.4886,7.57061c1.49816,0 2.96167,-0.05833 4.38832,-0.17259l1.93478,-2.95434c-0.36651,-0.8105 -1.24115,-1.34405 -2.21413,-1.26725c-20.18083,1.65765 -44.41644,-9.94483 -52.56481,-14.22074l12.50205,-13.59782c3.06783,1.85138 9.16465,5.12172 17.37141,7.52137c5.38029,1.5731 12.19588,2.89493 19.91126,2.89493c6.21694,0 13.01941,-0.86508 20.12077,-3.14218c2.35828,-1.57978 4.60956,-3.40949 6.67312,-5.53058l0.06062,-0.15814c-0.62882,-0.60687 -1.60738,-0.81183 -2.4703,-0.44043z"/>
   <g stroke="null" id="svg_5" opacity="0.18">
    <path stroke="null" id="svg_6" fill="#328777" d="m116.37245,73.26828c5.94988,-3.8732 14.92709,-10.56963 21.26807,-19.14713l-0.73581,-13.38482c0,0 -15.49166,16.546 -21.31472,13.77174c-5.13558,-2.44647 19.5143,-23.35507 15.41679,-36.66872c-31.17271,46.53248 -70.11193,75.42991 -92.48734,89.99288l0.73749,0.62078c0,0 11.79781,34.57251 48.11169,17.34659c0,0 -9.01324,0.5563 -18.4902,-6.61187c-1.50374,-1.13774 -0.39947,-3.44347 1.47972,-3.08545c9.0814,1.73123 25.82427,3.62783 38.12826,-2.50909l9.27471,-14.1616c0,0 -11.11619,3.61606 -21.60748,0.41769c-2.01495,-0.61409 -1.68756,-3.43598 0.41986,-3.60402c9.47417,-0.75618 26.00529,-3.76564 37.10696,-15.1768l5.33196,-13.91757c0,0 -11.25475,8.64012 -20.64344,10.61619c-2.78121,0.58519 -4.35144,-2.96584 -1.99652,-4.4988z"/>
   </g>
  </g>
 </g>
</svg>