<svg width="83" height="55" xmlns="http://www.w3.org/2000/svg" version="1.1" class="icon">

 <g>
  <title>Layer 1</title>
  <g transform="rotate(20.8046 43.5077 30.7706)" stroke="null" id="svg_3">
   <path stroke="null" id="svg_1" fill="#73C69A" d="m68.55048,6.66018c-0.38293,-0.99506 -5.71723,-0.45407 -8.36527,0.61105s-11.77917,7.56223 -13.59501,11.15718s-1.25119,4.16059 -2.16343,5.46767s-1.23316,2.16008 -1.59517,1.79423s-0.16154,-1.08069 0.56466,-2.36766s2.0192,-3.5677 2.32281,-5.09727s-0.73196,-7.22103 -0.83364,-9.5556s-1.11489,-6.86296 -2.42304,-6.89994s-4.99392,4.50114 -5.4194,7.92095s-1.25912,9.04445 0.3036,12.65691s2.45982,2.73351 2.97472,4.33833s-1.0096,5.35155 -2.95309,7.61412s-2.66823,3.03838 -3.48096,2.80097s-1.22595,-1.88115 -0.65336,-3.0332s1.89084,-2.40787 1.90959,-3.99258s-0.67283,-7.34428 -1.09758,-8.82585s-1.50142,-4.75607 -1.64565,-6.02293s0.20553,-4.3753 -0.76513,-4.69704c-1.70839,-0.49105 -4.13865,3.29331 -5.48791,8.5787s0.4947,9.60036 1.0947,10.46764s2.00839,2.99882 3.00357,3.97118s1.86127,1.35508 2.12305,3.02087s0.3923,2.49869 -0.706,4.84299s-4.76388,9.68728 -5.9855,10.79716c-0.30216,-2.75037 0.46658,-1.95575 0.53437,-4.12361s-0.21995,-2.84184 0.21634,-4.80342s-1.5245,-9.04315 -3.31726,-10.9243c-0.87475,-0.97625 -0.57692,-3.47624 -1.10479,-3.52424s-0.68076,-0.15828 -1.00383,1.44849s-3.10092,6.61647 -2.47136,10.99112s0.92451,4.78202 1.57642,5.68821s1.55479,1.51141 2.24564,3.25958s0.78028,2.62713 1.49493,3.14217s-1.16609,6.02033 -1.16609,6.02033l2.03146,0.3892s1.78988,-8.13436 3.6151,-8.88682s2.68843,1.14361 6.00497,1.16437s7.48836,-1.03204 9.32367,-1.70082s2.97184,-1.04177 4.78263,-2.36117s4.06797,-4.38373 5.39921,-5.82314s2.28098,-1.65931 1.86416,-2.17046s-2.40141,-0.2212 -4.39898,-0.12195s-8.27152,0.42293 -12.88036,1.92851s-6.13838,4.65747 -6.93164,5.4735s-1.05503,1.79164 -1.76608,1.38297s-0.3411,-0.9542 0.09231,-1.5166s5.64151,-11.48151 11.71138,-12.46555c2.93289,-0.37623 2.73025,1.60352 6.66049,1.68655s10.01669,-1.21691 14.60173,-6.38943c3.39947,-3.8395 4.39898,-7.38904 4.80498,-7.84894s-2.0704,-0.8569 -3.85019,-0.41969s-2.524,1.04761 -4.24898,1.25324s-9.1405,0.68824 -12.28902,3.34067s-3.44202,5.90293 -4.82662,6.68717s-3.02159,1.62168 -3.19683,1.10599s3.05693,-6.54381 5.66315,-9.1904c0.84013,-0.88803 2.09132,-0.35093 4.8396,-1.59638s10.38448,-6.66382 12.61425,-8.84531s2.31415,-3.80706 4.16605,-5.17252s2.22401,-2.25414 2.08266,-2.62518z"/>
   <path stroke="null" id="svg_2" fill="#00757F" d="m21.55208,31.22672c-0.8221,2.69459 -0.51273,7.92289 0.07933,10.4605s2.27016,9.80599 2.27016,9.80599s-1.22595,-7.66602 -1.75094,-10.72905s-0.59855,-9.53744 -0.59855,-9.53744zm8.2571,-18.06165c-1.12354,3.17525 -1.0608,8.46129 -0.8322,10.01811s1.85334,9.29484 2.81246,10.28796c-1.24542,-4.8164 -2.05454,-7.84894 -2.39492,-10.66483c-0.33533,-2.79578 -0.02308,-5.04149 0.41466,-9.64123zm23.06435,27.95651c-2.41223,2.52983 -7.44653,5.26074 -9.03377,5.90293s-9.76501,3.46781 -11.20874,3.25439c5.21027,-1.57887 8.50085,-2.55318 11.34432,-3.77398c2.81895,-1.21042 4.77902,-2.62907 8.8982,-5.38334zm-11.24264,-37.35903c-0.72763,1.79747 -3.16654,13.27964 -1.52089,18.17387c-1.05143,-5.64086 1.52089,-18.17387 1.52089,-18.17387zm22.07639,5.55264c-2.84491,1.38946 -15.40003,10.86527 -16.27911,12.04197c2.41006,-1.44654 16.27911,-12.04197 16.27911,-12.04197zm1.20359,14.94802c-1.34133,1.60741 -12.32508,10.18417 -19.72041,9.40576c11.51235,-2.08808 19.72041,-9.40576 19.72041,-9.40576z"/>
  </g>
 </g>
</svg>