<svg width="150" height="150" xmlns="http://www.w3.org/2000/svg" version="1.1" class="icon">

 <g>
  <title>Layer 1</title>
  <g stroke="null" id="svg_18">
   <path stroke="null" id="svg_1" fill="#9DBE87" d="m37.59675,29.74147l100.55264,0c1.82433,0 3.2194,1.33171 3.2194,3.07317l0,59.72196c0,1.74146 -1.39507,3.07317 -3.2194,3.07317l-100.55264,0c-1.82433,0 -3.2194,-1.33171 -3.2194,-3.07317l0,-59.72196c0,-1.74146 1.39507,-3.07317 3.2194,-3.07317z"/>
   <path stroke="null" id="svg_2" fill="#131313" d="m138.14939,97.65855l-100.55264,0c-3.00478,0 -5.36567,-2.25366 -5.36567,-5.12195l0,-59.72196c0,-2.86829 2.36089,-5.12195 5.36567,-5.12195l100.55264,0c3.00478,0 5.36567,2.25366 5.36567,5.12195l0,59.72196c0,2.76585 -2.36089,5.12195 -5.36567,5.12195zm-100.55264,-65.8683c-0.64388,0 -1.07313,0.40976 -1.07313,1.02439l0,59.72196c0,0.61463 0.42925,1.02439 1.07313,1.02439l100.55264,0c0.64388,0 1.07313,-0.40976 1.07313,-1.02439l0,-59.72196c0,-0.61463 -0.42925,-1.02439 -1.07313,-1.02439l-100.55264,0z"/>
   <path stroke="null" id="svg_3" fill="#9DBE87" d="m28.47511,38.44878l100.65995,0c1.82433,0 3.2194,1.33171 3.2194,3.07317l0,59.72196c0,1.74146 -1.39507,3.07317 -3.2194,3.07317l-100.65995,0c-1.82433,0 -3.2194,-1.33171 -3.2194,-3.07317l0,-59.72196c0,-1.74146 1.39507,-3.07317 3.2194,-3.07317z"/>
   <path stroke="null" id="svg_4" fill="#131313" d="m129.02776,106.36587l-100.55264,0c-3.00478,0 -5.36567,-2.25366 -5.36567,-5.12195l0,-59.72196c0,-2.86829 2.36089,-5.12195 5.36567,-5.12195l100.65995,0c3.00478,0 5.36567,2.25366 5.36567,5.12195l0,59.72196c-0.10731,2.76585 -2.46821,5.12195 -5.47298,5.12195zm-100.55264,-65.8683c-0.64388,0 -1.07313,0.40976 -1.07313,1.02439l0,59.72196c0,0.61463 0.42925,1.02439 1.07313,1.02439l100.65995,0c0.64388,0 1.07313,-0.40976 1.07313,-1.02439l0,-59.72196c0,-0.61463 -0.42925,-1.02439 -1.07313,-1.02439l-100.65995,0z"/>
   <path stroke="null" id="svg_5" fill="#9DBE87" d="m20.10467,46.95122l100.65996,0c1.82433,0 3.2194,1.33171 3.2194,3.07317l0,59.72196c0,1.74146 -1.39507,3.07317 -3.2194,3.07317l-100.65996,0c-1.82433,0 -3.2194,-1.33171 -3.2194,-3.07317l0,-59.72196c0,-1.63902 1.39507,-3.07317 3.2194,-3.07317z"/>
   <path stroke="null" id="svg_6" fill="#131313" d="m120.76463,114.8683l-100.65996,0c-3.00477,0 -5.36567,-2.25366 -5.36567,-5.12195l0,-59.72196c0,-2.86829 2.36089,-5.12195 5.36567,-5.12195l100.65996,0c3.00477,0 5.36567,2.25366 5.36567,5.12195l0,59.72196c0,2.76585 -2.46821,5.12195 -5.36567,5.12195zm-100.65996,-65.8683c-0.64388,0 -1.07313,0.40976 -1.07313,1.02439l0,59.72196c0,0.61463 0.42925,1.02439 1.07313,1.02439l100.65996,0c0.64388,0 1.07313,-0.40976 1.07313,-1.02439l0,-59.72196c0,-0.61463 -0.42925,-1.02439 -1.07313,-1.02439l-100.65996,0z"/>
   <path stroke="null" id="svg_7" fill="#9DBE87" d="m11.5196,54.53171l100.65995,0c1.82433,0 3.2194,1.33171 3.2194,3.07317l0,59.72196c0,1.74146 -1.39507,3.07317 -3.2194,3.07317l-100.65995,0c-1.82433,0 -3.2194,-1.33171 -3.2194,-3.07317l0,-59.72196c0,-1.63902 1.39507,-3.07317 3.2194,-3.07317z"/>
   <path stroke="null" id="svg_8" fill="#131313" d="m112.17955,122.44879l-100.65995,0c-3.00478,0 -5.36567,-2.25366 -5.36567,-5.12195l0,-59.72196c0,-2.86829 2.36089,-5.12195 5.36567,-5.12195l100.65995,0c3.00478,0 5.36567,2.25366 5.36567,5.12195l0,59.72196c0,2.86829 -2.46821,5.12195 -5.36567,5.12195zm-100.65995,-65.8683c-0.64388,0 -1.07313,0.40976 -1.07313,1.02439l0,59.72196c0,0.61463 0.42925,1.02439 1.07313,1.02439l100.65995,0c0.64388,0 1.07313,-0.40976 1.07313,-1.02439l0,-59.72196c0,-0.61463 -0.42925,-1.02439 -1.07313,-1.02439l-100.65995,0z"/>
   <path stroke="null" id="svg_9" fill="#D6F0C5" d="m98.65807,111.1805l-73.61698,0c0,-4.81463 -4.18522,-8.80976 -9.22895,-8.80976l0,-30.93659c5.04373,0 9.22895,-3.99512 9.22895,-8.80976l73.61698,0c0,4.81463 4.18522,8.80976 9.22895,8.80976l0,30.93659c-5.15104,0 -9.22895,3.99512 -9.22895,8.80976z"/>
   <path stroke="null" id="svg_10" fill="#131313" d="m98.65807,113.22928l-73.61698,0c-1.18045,0 -2.14627,-0.92195 -2.14627,-2.04878c0,-3.68781 -3.2194,-6.76098 -7.08268,-6.76098c-1.18045,0 -2.14627,-0.92195 -2.14627,-2.04878l0,-30.93659c0,-1.12683 0.96582,-2.04878 2.14627,-2.04878c3.86328,0 7.08268,-3.07317 7.08268,-6.76098c0,-1.12683 0.96582,-2.04878 2.14627,-2.04878l73.61698,0c1.18045,0 2.14627,0.92195 2.14627,2.04878c0,3.68781 3.2194,6.76098 7.08268,6.76098c1.18045,0 2.14627,0.92195 2.14627,2.04878l0,30.93659c0,1.12683 -0.96582,2.04878 -2.14627,2.04878c-3.86328,0 -7.08268,3.07317 -7.08268,6.76098c0,1.12683 -0.96582,2.04878 -2.14627,2.04878zm-71.68534,-4.09756l69.64639,0c0.85851,-4.30244 4.50716,-7.78537 9.01432,-8.60488l0,-27.24878c-4.50716,-0.81951 -8.15582,-4.30244 -9.01432,-8.60488l-69.64639,0c-0.85851,4.30244 -4.50716,7.78537 -9.01432,8.60488l0,27.14634c4.50716,0.92195 8.15582,4.40488 9.01432,8.70732z"/>
   <path stroke="null" id="svg_11" fill="#131313" d="m62.0642,100.83416c-3.43403,0 -7.08268,-1.22927 -9.6582,-4.40488c-0.75119,-0.92195 -0.53657,-2.15122 0.32194,-2.86829c0.96582,-0.71707 2.25358,-0.5122 3.00478,0.30732c2.57552,3.17561 6.54612,3.27805 9.12164,2.45854c2.14627,-0.71707 3.43403,-2.04878 3.43403,-3.48293c0,-1.33171 -3.32672,-2.25366 -6.22418,-3.07317c-4.50716,-1.33171 -10.19477,-2.86829 -10.19477,-7.99024c0,-2.45854 1.6097,-4.7122 4.39985,-6.0439c3.43403,-1.63903 9.22895,-2.25366 14.70193,1.53659c0.96582,0.71707 1.18045,1.94634 0.42925,2.86829c-0.75119,0.92195 -2.03895,1.12683 -3.00477,0.40976c-3.64866,-2.56098 -7.72656,-2.45854 -10.19477,-1.22927c-1.28776,0.61463 -2.14627,1.53659 -2.14627,2.45854c0,1.94634 3.00477,2.86829 7.08268,4.09756c4.39985,1.22927 9.22895,2.66341 9.22895,6.96585c0,3.17561 -2.46821,6.0439 -6.33149,7.37561c-1.07313,0.30732 -2.57552,0.61463 -3.9706,0.61463z"/>
   <path stroke="null" id="svg_12" fill="#131313" d="m61.84958,78.50245c-1.18045,0 -2.14627,-0.92195 -2.14627,-2.04878l0,-4.50732c0,-1.12683 0.96582,-2.04878 2.14627,-2.04878s2.14627,0.92195 2.14627,2.04878l0,4.50732c0,1.22927 -0.96582,2.04878 -2.14627,2.04878z"/>
   <path stroke="null" id="svg_13" fill="#131313" d="m61.84958,104.72684c-1.18045,0 -2.14627,-0.92195 -2.14627,-2.04878l0,-3.38049c0,-1.12683 0.96582,-2.04878 2.14627,-2.04878s2.14627,0.92195 2.14627,2.04878l0,3.38049c0,1.12683 -0.96582,2.04878 -2.14627,2.04878z"/>
   <path stroke="null" id="svg_14" fill="#AECD99" d="m33.84078,88.13172m-3.9706,0a3.9706,3.79024 0 1 0 7.94119,0a3.9706,3.79024 0 1 0 -7.94119,0z"/>
   <path stroke="null" id="svg_15" fill="#131313" d="m33.84078,93.8683c-3.32671,0 -6.11686,-2.56098 -6.11686,-5.83902s2.68284,-5.83902 6.11686,-5.83902c3.32672,0 6.11686,2.56098 6.11686,5.83902s-2.79015,5.83902 -6.11686,5.83902zm0,-7.47805c-0.96582,0 -1.82433,0.71707 -1.82433,1.74146s0.75119,1.74146 1.82433,1.74146c0.96582,0 1.82433,-0.71707 1.82433,-1.74146s-0.85851,-1.74146 -1.82433,-1.74146z"/>
   <path stroke="null" id="svg_16" fill="#AECD99" d="m90.073,88.13172m-3.9706,0a3.9706,3.79024 0 1 0 7.94119,0a3.9706,3.79024 0 1 0 -7.94119,0z"/>
   <path stroke="null" id="svg_17" fill="#131313" d="m90.073,93.8683c-3.32672,0 -6.11686,-2.56098 -6.11686,-5.83902s2.68283,-5.83902 6.11686,-5.83902c3.32671,0 6.11686,2.56098 6.11686,5.83902s-2.79015,5.83902 -6.11686,5.83902zm0,-7.47805c-0.96582,0 -1.82433,0.71707 -1.82433,1.74146s0.75119,1.74146 1.82433,1.74146s1.82433,-0.71707 1.82433,-1.74146s-0.85851,-1.74146 -1.82433,-1.74146z"/>
  </g>
 </g>
</svg>