<svg width="150" height="150" xmlns="http://www.w3.org/2000/svg" xml:space="preserve" version="1.1">

 <g>
  <title>Layer 1</title>
  <g stroke="null" id="svg_20">
   <g stroke="null" id="svg_1">
    <path stroke="null" id="svg_2" fill="#FFD960" d="m102.00932,96.63061l-2.51872,-13.5085l18.25715,-16.37168c0.77482,-0.6947 1.05342,-1.73405 0.71911,-2.68023c-0.33431,-0.94618 -1.22365,-1.63606 -2.29338,-1.77908l-25.23088,-3.37238l-11.28343,-21.0332c-0.47838,-0.89209 -1.46622,-1.45708 -2.54765,-1.45708c-1.08174,0 -2.06958,0.56499 -2.54796,1.45708l-11.28343,21.0332l-25.22965,3.37238c-1.07004,0.1433 -1.95969,0.8329 -2.29369,1.77908s-0.05541,1.98554 0.71911,2.68023l18.25715,16.37168l-4.31032,23.11701c-0.18255,0.98045 0.2555,1.97194 1.13099,2.55676c0.87456,0.58481 2.03511,0.66213 2.99248,0.19909l22.56625,-10.91408l22.56625,10.91408c0.41558,0.20136 0.86964,0.3002 1.32246,0.3002c0.58858,0 1.17501,-0.16851 1.67032,-0.49929c0.87579,-0.58481 1.31354,-1.57659 1.1313,-2.55676l-1.79345,-9.60851"/>
    <path stroke="null" id="svg_3" fill="#FFD960" d="m53.78061,16.2457c-0.14807,-0.41942 -0.54241,-0.72528 -1.01617,-0.78815l-11.17723,-1.49446l-4.99895,-9.31738c-0.2121,-0.39563 -0.64953,-0.6457 -1.12884,-0.6457c-0.4793,0 -0.91674,0.25007 -1.12884,0.6457l-4.99895,9.31738l-11.17754,1.49446c-0.47376,0.06344 -0.8681,0.36873 -1.01617,0.78815c-0.14776,0.41886 -0.02432,0.87906 0.31861,1.1869l8.08809,7.25283l-1.90951,10.24175c-0.08096,0.43443 0.11298,0.87311 0.50085,1.13253c0.38787,0.25913 0.90196,0.2934 1.32585,0.08808l9.99729,-4.83512l9.99698,4.83512c0.18409,0.08893 0.38572,0.13311 0.58612,0.13311c0.26074,0 0.52055,-0.07477 0.74004,-0.22118c0.38726,-0.25913 0.5815,-0.69838 0.50116,-1.13253l-1.90982,-10.24204l8.08809,-7.25255c0.34324,-0.30784 0.46699,-0.76776 0.31892,-1.1869z"/>
    <path stroke="null" id="svg_4" fill="#FFD960" d="m90.83702,133.99018c-0.11082,-0.31407 -0.40634,-0.5429 -0.76128,-0.59048l-8.37376,-1.11922l-3.74514,-6.98039c-0.15792,-0.29623 -0.48638,-0.48371 -0.84532,-0.48371c-0.35894,0 -0.68647,0.18748 -0.84532,0.48371l-3.74452,6.98039l-8.37376,1.11922c-0.35494,0.04758 -0.65077,0.27669 -0.76189,0.59048c-0.11082,0.31407 -0.01816,0.65901 0.23888,0.88954l6.05945,5.43353l-1.43082,7.67197c-0.06034,0.3254 0.08465,0.65448 0.37494,0.84876c0.2906,0.19428 0.6757,0.21948 0.99339,0.06599l7.48904,-3.62273l7.48996,3.62273c0.1376,0.06655 0.28844,0.09912 0.43836,0.09912c0.19486,0 0.39095,-0.05551 0.55411,-0.16539c0.2906,-0.19428 0.4359,-0.52336 0.37618,-0.84876l-1.43113,-7.67197l6.05945,-5.43353c0.25797,-0.23053 0.35001,-0.57547 0.23919,-0.88926z"/>
   </g>
   <g stroke="null" id="svg_5" opacity="0.1">
    <path stroke="null" id="svg_6" fill="#231F20" d="m59.35913,103.70502l4.24596,-23.11701l-17.98451,-16.37168c-0.76295,-0.6947 -1.03738,-1.73405 -0.70837,-2.68023c0.02274,-0.06514 0.05398,-0.12574 0.08187,-0.18861l-6.95418,0.94392c-1.05406,0.1433 -1.93042,0.8329 -2.25944,1.77908s-0.05458,1.98554 0.70837,2.68023l17.98451,16.37168l-4.24596,23.11701c-0.17982,0.98045 0.25169,1.97194 1.1141,2.55676c0.8615,0.58481 2.00471,0.66213 2.94779,0.19909l5.94652,-2.91982c-0.69988,-0.59586 -1.0389,-1.48625 -0.87666,-2.37041z"/>
   </g>
   <g stroke="null" id="svg_7" opacity="0.1">
    <path stroke="null" id="svg_8" fill="#231F20" d="m32.97277,32.39308l1.88099,-10.24175l-7.96731,-7.25283c-0.16618,-0.15123 -0.27928,-0.33956 -0.33478,-0.54148l-8.11013,1.10053c-0.46669,0.06344 -0.85513,0.36873 -1.00099,0.78815c-0.14555,0.41886 -0.02396,0.87906 0.31385,1.1869l7.96731,7.25283l-1.88099,10.24175c-0.07975,0.43443 0.11129,0.87311 0.49337,1.13253c0.38208,0.25913 0.88849,0.2934 1.30605,0.08808l7.31534,-3.59158c0.00152,-0.05437 0.00728,-0.10875 0.01728,-0.16312z"/>
   </g>
   <g stroke="null" id="svg_9" opacity="0.1">
    <path stroke="null" id="svg_10" fill="#231F20" d="m76.92456,145.45112l1.40946,-7.67197l-5.96896,-5.43353c-0.10583,-0.09629 -0.17649,-0.21523 -0.22258,-0.34098l-0.14586,0.27612l-8.24871,1.11922c-0.34963,0.04758 -0.64105,0.27669 -0.75052,0.59048c-0.10917,0.31407 -0.01789,0.65901 0.23531,0.88954l5.96896,5.43353l-1.40946,7.67197c-0.05943,0.3254 0.08339,0.65448 0.36935,0.84876c0.28626,0.19428 0.66561,0.21948 0.97855,0.06599l7.3772,-3.62273l0.40573,0.19937c0.00212,-0.00878 0,-0.01728 0.00152,-0.02577z"/>
   </g>
   <g stroke="null" id="svg_11">
    <circle stroke="null" id="svg_12" fill="#FFD960" r="7.58134" cy="89.41884" cx="135.6535"/>
    <circle stroke="null" id="svg_13" fill="#FFD960" r="7.58134" cy="101.70475" cx="17.45602"/>
   </g>
   <g stroke="null" id="svg_14">
    <path stroke="null" id="svg_15" fill="#231F20" opacity="0.1" d="m132.96316,89.41997c0,-3.29847 2.25519,-6.10274 5.40372,-7.14578c-0.84877,-0.28094 -1.76152,-0.43528 -2.71369,-0.43528c-4.48369,0 -8.11771,3.3939 -8.11771,7.58134c0,4.18687 3.63402,7.58134 8.11771,7.58134c0.95217,0 1.86492,-0.15435 2.71369,-0.43557c-3.14823,-1.04332 -5.40372,-3.84788 -5.40372,-7.14606z"/>
    <path stroke="null" id="svg_16" fill="#231F20" opacity="0.1" d="m14.76568,101.70334c0,-3.2979 2.25519,-6.10274 5.40372,-7.14578c-0.84877,-0.28122 -1.76182,-0.43557 -2.71369,-0.43557c-4.48369,0 -8.11771,3.3939 -8.11771,7.58134c0,4.18687 3.63402,7.58134 8.11771,7.58134c0.95187,0 1.86492,-0.15435 2.71369,-0.43557c-3.14793,-1.04304 -5.40372,-3.8476 -5.40372,-7.14578z"/>
   </g>
   <g stroke="null" id="svg_17">
    <circle stroke="null" id="svg_18" fill="#FFD960" r="5.2942" cy="30.98925" cx="114.88283"/>
    <circle stroke="null" id="svg_19" fill="#FFD960" r="5.29448" cy="127.21115" cx="127.53609"/>
   </g>
  </g>
 </g>
</svg>